<svg xmlns="http://www.w3.org/2000/svg" width="78.556" height="92.999" viewBox="0 0 78.556 92.999">
  <path id="Path_40" data-name="Path 40" d="M39.278,25.381A8.628,8.628,0,0,1,33.038,22.9a8.1,8.1,0,0,1-2.557-6.048,7.287,7.287,0,0,1,1.432-4.362L39.278,0l7.365,12.492a7.287,7.287,0,0,1,1.432,4.362A8.1,8.1,0,0,1,45.517,22.9,8.628,8.628,0,0,1,39.278,25.381ZM59.326,67.617A14.774,14.774,0,0,0,69.964,71.98,15.216,15.216,0,0,0,78.556,69.4V88.834a3.826,3.826,0,0,1-1.33,2.974A4.341,4.341,0,0,1,74.26,93H4.3a4.341,4.341,0,0,1-2.966-1.19A3.826,3.826,0,0,1,0,88.834V69.4A15.216,15.216,0,0,0,8.592,71.98,14.774,14.774,0,0,0,19.23,67.617l4.705-4.561,4.705,4.561a14.688,14.688,0,0,0,10.638,4.164,14.688,14.688,0,0,0,10.638-4.164l4.705-4.561Zm6.137-29.545a12.86,12.86,0,0,1,9.308,3.668,12.073,12.073,0,0,1,3.785,9.022v6.544A7.882,7.882,0,0,1,76,63.156a8.383,8.383,0,0,1-6.035,2.479,8.213,8.213,0,0,1-5.933-2.379l-9.41-9.121-9.41,9.121a8.162,8.162,0,0,1-5.933,2.181,8.9,8.9,0,0,1-6.137-2.181l-9.206-9.121-9.41,9.121a8.213,8.213,0,0,1-5.933,2.379,8.383,8.383,0,0,1-6.035-2.479A7.882,7.882,0,0,1,0,57.306V50.763A12.073,12.073,0,0,1,3.785,41.74a12.86,12.86,0,0,1,9.308-3.668H34.982V29.545h8.592v8.527Z" fill="#4a4a4a"/>
</svg>
